<?xml version="1.0" encoding="utf-8"?>
<!-- Generator: Adobe Illustrator 27.0.1, SVG Export Plug-In . SVG Version: 6.00 Build 0)  -->
<svg version="1.1" xmlns="http://www.w3.org/2000/svg" xmlns:xlink="http://www.w3.org/1999/xlink" x="0px" y="0px"
	 viewBox="-260.3 -443.3 821 801.7" style="enable-background:new -260.3 -443.3 821 801.7;" xml:space="preserve">
<style type="text/css">
	.st0{fill:#FCFCFC;}
	.st1{fill:#FFFFFF;}
	.st2{stroke:#000000;stroke-miterlimit:10;}
</style>
<g id="Layer_2">
</g>
<g id="Layer_1">
	<g>
		<g>
			<g>
				<path d="M415.2,81.3c-25.5,31.5-71.3,34.4-111.7,37c-13,0.8-40.7-11.2-54.7-22.9c-15.5-13-30.2-53.2-31.2-65.4
					c-0.9-11.7-3.1-31.2,1-41c2.6-12.7,9-33.6,25.8-53c7.9-9.1,19.3-22.3,39.2-27.8c14-3.9,97.8-14.9,134.6,21.9
					c14.2,14.1,19.7,29.6,21.7,36.9C450.9,6,440.7,49.8,415.2,81.3z"/>
				<g>
					<path d="M410.9,77c-15.9,19.2-39.5,27.1-63.4,31c-12.7,2.1-25.5,3-38.3,3.8c-11,0.7-20.3-1.5-30.5-5.9
						c-10-4.3-21.1-9.7-28.7-17.6c-7.1-7.5-12-17.3-16.2-26.6c-8.8-19.6-12.6-37.6-11.8-59c0.4-9.9,3.7-20.4,7.1-29.6
						c4.7-12.7,11.8-24.3,20.6-34.5c7.3-8.4,15.2-16,25.3-21c6.3-3.1,12.9-4.6,19.7-5.7c16.2-2.5,33.7-3.1,50.3-2
						c20,1.3,41.1,5.1,58.3,16C447.6-46,444.9,19.5,422.3,60C419,65.9,415.2,71.7,410.9,77c-4.8,6,3.7,14.5,8.5,8.5
						c34.1-42.7,45.3-112,6.7-155.7c-15.4-17.5-38.1-25.9-60.6-29.5c-20.5-3.3-41.4-3.5-62-1.3c-6.5,0.7-13.2,1.5-19.6,2.9
						c-11.7,2.7-22.3,8.9-31.3,16.8C233-64.1,219.1-40.4,213.3-15c-1.3,5.8-2.8,11.1-3.1,17.1c-0.3,6.9,0.2,13.9,0.7,20.8
						c0.8,9.8,2.6,18.7,5.8,28c4,11.5,9,22.9,15.4,33.3c6,9.8,13.4,17.2,23.2,23.2c11,6.9,23.6,12.7,36.3,15.6
						c12,2.7,24.8,0.6,36.9-0.5c26.5-2.5,54.7-7,76.5-23.3c5.3-4,10.2-8.5,14.4-13.6C424.3,79.6,415.8,71.1,410.9,77z"/>
				</g>
			</g>
			<g>
				<g>
					<path d="M29.1,49c-26.6,33.5-69,54.9-111.2,50.2c-43.6-4.8-64.1-27.3-79.8-68.8c-16.5-43.4-8.3-60.3-2.5-72.2
						c5.5-11.3,23.1-29,23.1-29c31.5-25.3,48.9-31.1,48.9-31.1c71.1-26.1,135.2,24.6,144.2,78.9C56.5,5,46.9,30.1,29.1,49z"/>
					<g>
						<path d="M24.8,44.8c-31,38.5-83.9,61.1-132.1,42.5c-17.8-6.9-30.6-20.9-39.5-37.4c-5.9-11-10.6-22.8-14.2-34.8
							c-2.9-9.9-5.1-20.1-4.8-30.5c0.5-14.3,6.8-25.9,15.8-36.9c4.8-5.8,9.8-11.9,15.8-16.6c9.2-7.2,18.8-14,29-19.9
							c2.9-1.7,5.9-3.4,9-4.9c1-0.5,2.1-1,3.1-1.5c0.4-0.2,0.8-0.4,1.2-0.5c-1.6,0.7-0.5,0.2-0.1,0.1c8.3-3.1,17-5.4,25.8-6.5
							c23.3-2.8,46.7,2.7,66.5,15.2c19.9,12.6,36.1,32.2,43,54.9C51.8-4.6,44.2,23.8,24.8,44.8c-5.2,5.7,3.2,14.2,8.5,8.5
							c19.4-21,28.9-48.4,24.4-76.9c-3.6-23-16.5-44.3-33.4-60c-33-30.6-83.1-40.6-124.5-21.4c-8,3.7-15.6,8.4-22.9,13.4
							c-9,6.1-18.4,12.3-25.9,20.2c-11.6,12.4-23,26.1-27,43c-5.4,22.7,2.4,47,11.1,67.8c8.5,20.3,20.1,39.7,39.1,51.9
							c20.2,13,46.6,16.7,70.1,13.6c27.9-3.6,53.9-16.9,74.5-35.9c5.2-4.8,10.1-10.1,14.5-15.7C38.1,47.3,29.7,38.7,24.8,44.8z"/>
					</g>
				</g>
			</g>
		</g>
		<path d="M550.7-89.6c0.9,4.9,0.9,3.6-1.8-18.4c-4.5-20.6-8.5-45.3-17.9-64.6c-14.3-24.7-30-48.4-47.1-70.4
			c-4.5-4.5-9-9.9-12.6-15.2c-16.6-19.3-34.1-37.7-53.3-54.2C364.2-360,301-389.6,228.4-407c-0.9,0.9-43-14.8-82.9-19.7
			c-31.4-9-76.2-1.3-86.1-4c-39.4,4-77.6,12.6-115.2,26c-0.9,0.4-91,51.6-91.9,52c-27.8,17.9-53.3,43.5-66.3,58.3
			c-4.5,6.7-9,13.9-13,20.6c-7.2,17.9-14.3,46.2-21.1,58.7l74-68.6c28.2-23.8,83.4-26.9,83.4-26.9s-53.3,43.9-79.8,86.1l-23.3,46.2
			c0,0-5.8,9-14.8,33.2c-9,23.8-16.6,35.4-34.1,86.1c-0.4,1.4-0.9,3.1-0.9,4.5c-3.1,30.5-1.8,60.5,1.3,90.6
			c2.7,32.7,8.5,58.3,21.5,89.2c0,0,0,0,0,0.4c4.5,10.3,8.5,21.1,12.1,31.8c8.5,13.5,17,26.9,25.6,40.3c0.4,0.5,0.9,1.3,1.3,1.8
			c3.6,4.9,7.6,9.9,11.2,14.8c0.5,0.4,0.9,0.9,1.3,1.3c13.5,14.8,24.7,31.4,38.1,46.2l36.8,28.2c7.6,4,14.8,8.5,22.4,12.1
			c12.1,5.8,24.2,12.1,36.8,17.9c9.4,3.1,19.3,6.3,29.1,9.9l13.5,5.4c14.3,1.8,41.2,9,44.4,9.9c0.9,0,9,0.9,61,8.1
			c1.8,0.5,4.5,0.5,4.5,0.5l24.7,1.8c0,0,25.1,2.2,59.6-0.5l30-6.3c38.5-5.8,127.8-52,185.6-91c12.6-8.5,24.2-20.2,31.8-33.2
			c20.6-35.4,39.5-71.7,58.7-108.5V157l1.8,0.4c3.1-12.1,6.7-23.8,10.3-35.4l21.1-64.6C548.5,8.6,554.3-40.3,550.7-89.6z
			 M178.2-253.7c0.9,1.8,1.8,4,2.7,6.3C128.4-223.7,76-199.9,20.8-175.2c59.2,15.7,115.7,10.3,169.9-5.8
			c39.9-11.7,77.1-30.5,116.1-45.3c5.8-2.2,16.6-2.2,20.2,1.8c17,17.5,31.8,36.8,48.4,56.5c-30.5,3.1-58.3,3.6-85.6,9
			c-43,8.1-84.7,22.4-112.1,59.6C134.7-41.2,136,22.5,162.9,87c2.2,5.4,5.4,10.8,8.1,16.1c0.5,1.3,0,2.7,0,6.3
			c-29.6-1.3-59.2-2.7-91-4.5C114,45.3,132.9-14.8,101-78.9C69.7-142.5,12.7-165.4-55.4-173C-1.6-210.7,125.3-264,178.2-253.7z
			 M226.6,234.5c-13.5-35.4-26-67.7-38.5-100c1.8-0.4,4-0.9,5.8-1.8c22,12.5,43.5,24.7,68.6,39C251.2,191,239.6,211.2,226.6,234.5z
			 M279,178.5l27.3,4.5c6.3,16.6,11.2,36.8,18.4,57.8c-26,2.7-50.7,4.9-81.6,8.1C257.5,222.9,266.5,199.1,279,178.5z M209.1,248
			c-28.2,3.1-58.7,3.6-93.7,0c17.9-33.6,35-65.9,54.2-102.2C183.1,181.6,195.7,213.5,209.1,248z M52.2,143.1
			c10.8,38.6,19.7,72.2,29.6,107.6h-94.1C9.6,213.9,29.8,180.3,52.2,143.1z M-24.9,230.5c-4.5-24.7-7.6-44.8-11.2-66.3
			c20.6-5.4,38.1-9.9,60.1-15.2c-9,15.2-16.6,27.8-24.2,40.3C-7.9,201.8-15.5,214.3-24.9,230.5z M69.7,125.6
			c29.6,1.3,55.6,2.7,86.1,3.6c-19.3,35-36.3,66.4-56.5,103.1C88,193.3,79.5,161.4,69.7,125.6z M-213.2-18.3
			c-2.2-45.3,25.6-75.3,61-100.4C-94-160,36-156.4,78.2-64.5C111.4,9,68.8,134.5-47.8,135C-133.9,135.4-209.2,67.3-213.2-18.3z
			 M-71,163l12,4l6,33c3.6,23.6,4.8,17,8.4,45.7c-27.1-9.6-41.4-20.1-58.4-37.7C-89.9,193.4-71,163-71,163z M-117,194
			c-24.2-29.8-32-68-32-68c1.4,1.2,45.4,25.3,63,33C-93.6,169-102.2,180.9-117,194z M448.5,191.5c-4.5,7.2-9.4,14.3-14.8,20.6
			c-17.9,22-40.4,39.9-67.2,54.7C292,308,216.3,338.1,128.9,332.2C54,327.3-16,306.2-81.4,270.4c-1.9-1-8.6-5.4-16.5-10.6
			c-0.4,0.4-18-12.1-42.1-42.8c-5.6-7.1-28.3-33.9-34-43c-22-35-28-80-28-80l32,23l12,45l25,39l27.3,30.7L-89,246
			c0.1,0,30.4,15.2,43,18c18,4,17.1,2.3,60,4c78.9,3.2,227.7-0.7,281.6-3.4c29.6-1.3,56-9.4,77.6-24.2c19.7-13.4,35-33.2,45.7-60.1
			c1.8-4,5.8-7.6,9.9-10.3c5.8-3.6,11.6-7.2,17.9-11.2c8.1-4.9,16.1-9.9,24.7-14.8C465.1,161.4,457.5,177.1,448.5,191.5z M327,182.1
			c23.3-1.3,44.4-2.2,68.6-3.6c-7.6,25.6-27.8,38.1-50.7,52.9C338.7,214.3,333.3,199.1,327,182.1z M483.5,46.7
			c-4,16.6-10.3,32.7-16.6,48.4c-12.6,30.5-27.8,40.8-68.2,54.7l-52,8.5c-36.8,0-57.8-9-84.3-19.3c-66.3-26.5-97.7-82-90.6-152.4
			c6.3-61.4,50.2-107.6,121-118.8c33.2-4.9,69.5-6.7,101.8,1.8C463.3-112.5,505.9-42.1,483.5,46.7z"/>
		<path class="st1" d="M-86,159c-7.6,10-16.2,21.9-31,35c-24.2-29.8-32-68-32-68C-147.6,127.2-103.6,151.3-86,159z"/>
		<path class="st1" d="M-44.6,245.7c-27.1-9.6-41.4-20.1-58.4-37.7c13.1-14.6,32-45,32-45l12,4l6,33
			C-49.4,223.6-48.2,217-44.6,245.7z"/>
		<path class="st1" d="M23.9,148.9c-9,15.2-16.6,27.8-24.2,40.3c-7.6,12.5-15.2,25.1-24.7,41.2c-4.5-24.7-7.6-44.8-11.2-66.3
			C-15.5,158.8,2,154.3,23.9,148.9z"/>
		<path class="st1" d="M81.8,250.7h-94.1c22-36.8,42.1-70.4,64.6-107.6C62.9,181.6,71.9,215.2,81.8,250.7z"/>
		<path class="st1" d="M155.8,129.2c-19.3,35-36.3,66.4-56.5,103.1c-11.2-39-19.7-70.8-29.6-106.7
			C99.3,126.9,125.3,128.3,155.8,129.2z"/>
		<path class="st1" d="M209.1,248c-28.2,3.1-58.7,3.6-93.7,0c17.9-33.6,35-65.9,54.2-102.2C183.1,181.6,195.7,213.5,209.1,248z"/>
		<path class="st1" d="M262.5,171.8c-11.2,19.3-22.9,39.5-35.9,62.8c-13.5-35.4-26-67.7-38.5-100c1.8-0.4,4-0.9,5.8-1.8
			C215.8,145.3,237.3,157.4,262.5,171.8z"/>
		<path class="st1" d="M324.8,240.8c-26,2.7-50.7,4.9-81.6,8.1c14.3-26,23.3-49.8,35.9-70.4l27.3,4.5
			C312.7,199.5,317.6,219.7,324.8,240.8z"/>
		<path class="st1" d="M395.6,178.5c-7.6,25.6-27.8,38.1-50.7,52.9c-6.3-17-11.6-32.3-17.9-49.3
			C350.3,180.7,371.4,179.8,395.6,178.5z"/>
		<path class="st1" d="M471.4,144c-6.3,17.5-13.9,33.2-22.9,47.5c-4.5,7.2-9.4,14.3-14.8,20.6c-17.9,22-40.4,39.9-67.2,54.7
			C292,308,216.3,338.1,128.9,332.2C54,327.3-16,306.2-81.4,270.4c-1.9-1-8.6-5.4-16.5-10.6c-0.4,0.4-18-12.1-42.1-42.8
			c-5.6-7.1-28.3-33.9-34-43c-22-35-28-80-28-80l32,23l12,45l25,39l27.3,30.7L-89,246c0.1,0,30.4,15.2,43,18c18,4,17.1,2.3,60,4
			c78.9,3.2,227.7-0.7,281.6-3.4c29.6-1.3,56-9.4,77.6-24.2c19.7-13.4,35-33.2,45.7-60.1c1.8-4,5.8-7.6,9.9-10.3
			c5.8-3.6,11.6-7.2,17.9-11.2C454.8,153.8,462.9,148.9,471.4,144z"/>
		<path class="st1" d="M78.2-64.5C36-156.4-94-160-152.2-118.8c-35.4,25.1-63.2,55.1-61,100.4c4,85.6,79.3,153.8,165.4,153.3
			C68.8,134.5,111.4,9,78.2-64.5z M29.1,49c-26.6,33.5-69,54.9-111.2,50.2c-43.6-4.8-64.1-27.3-79.8-68.8
			c-16.5-43.4-8.3-60.3-2.5-72.2c5.5-11.3,23.1-29,23.1-29c31.5-25.3,48.9-31.1,48.9-31.1c71.1-26.1,135.2,24.6,144.2,78.9
			C56.5,5,46.9,30.1,29.1,49z"/>
		<path class="st1" d="M394.7-130.4c-32.3-8.5-68.6-6.7-101.8-1.8c-70.8,11.2-114.8,57.4-121,118.8c-7.2,70.4,24.2,126,90.6,152.4
			c26.5,10.3,47.5,19.3,84.3,19.3l52-8.5c40.4-13.9,55.6-24.2,68.2-54.7c6.3-15.7,12.5-31.8,16.6-48.4
			C505.9-42.1,463.3-112.5,394.7-130.4z M415.2,81.3c-25.5,31.5-71.3,34.4-111.7,37c-13,0.8-40.7-11.2-54.7-22.9
			c-15.5-13-30.2-53.2-31.2-65.4c-0.9-11.7-3.1-31.2,1-41c2.6-12.7,9-33.6,25.8-53c7.9-9.1,19.3-22.3,39.2-27.8
			c14-3.9,97.8-14.9,134.6,21.9c14.2,14.1,19.7,29.6,21.7,36.9C450.9,6,440.7,49.8,415.2,81.3z"/>
		<path class="st1" d="M375.4-168.1c-30.5,3.1-58.3,3.6-85.6,9c-43,8.1-84.7,22.4-112.1,59.6C134.7-41.2,136,22.5,162.9,87
			c2.2,5.4,5.4,10.8,8.1,16.1c0.5,1.3,0,2.7,0,6.3c-29.6-1.3-59.2-2.7-91-4.5C114,45.3,132.9-14.8,101-78.9
			C69.7-142.5,12.7-165.4-55.4-173c53.8-37.7,180.7-91,233.6-80.7c0.9,1.8,1.8,4,2.7,6.3C128.4-223.7,76-199.9,20.8-175.2
			c59.2,15.7,115.7,10.3,169.9-5.8c39.9-11.7,77.1-30.5,116.1-45.3c5.8-2.2,16.6-2.2,20.2,1.8C344-207.1,358.8-187.8,375.4-168.1z"
			/>
	</g>
</g>
</svg>
